<svg xmlns="http://www.w3.org/2000/svg" viewBox="0 0 313.48245 170.66667"><defs><style>.cls-1{fill:#ff942a;}.cls-2{fill:#fff;}</style></defs><title>Logo light</title><g id="Calque_2" data-name="Calque 2"><g id="Calque_1-2" data-name="Calque 1"><g id="Dark"><path class="cls-1" d="M77.24187,0a5.49592,5.49592,0,0,0-5.38581,4.52788,24.2221,24.2221,0,0,1-47.71265,0A5.49592,5.49592,0,0,0,18.75761,0H5.48269A5.51556,5.51556,0,0,0,0,5.54785v159.571a5.51555,5.51555,0,0,0,5.48269,5.54784H18.75814a5.49593,5.49593,0,0,0,5.3858-4.52787,24.22209,24.22209,0,0,1,47.71264,0,5.49592,5.49592,0,0,0,5.3858,4.52786H90.51731A5.51555,5.51555,0,0,0,96,165.11882V5.54785A5.51556,5.51556,0,0,0,90.51731,0Z"/><path class="cls-2" d="M40.84574,97.65951H60.55765a18.71428,18.71428,0,0,1,2.208.0957,5.15338,5.15338,0,0,1,1.69629.6084q1.72851.89648,1.72851,4.99218,0,4.481-2.36816,5.24805a10.7131,10.7131,0,0,1-3.32813.38379H35.15042q-4.48095,0-5.248-2.43164a10.0645,10.0645,0,0,1-.38477-3.26465v-35.584q0-3.26367,1.2168-4.44727,1.21436-1.18359,4.60742-1.18457H60.55765a18.71649,18.71649,0,0,1,2.208.0957,5.15361,5.15361,0,0,1,1.69629.6084q1.72851.89649,1.72851,4.99219,0,4.481-2.36816,5.248a10.7131,10.7131,0,0,1-3.32813.38379H40.84574v6.46386H53.51761a18.71381,18.71381,0,0,1,2.208.09571,5.15333,5.15333,0,0,1,1.69629.60839q1.72851.89649,1.72851,4.99219,0,4.481-2.43261,5.24805a10.7089,10.7089,0,0,1-3.32813.38379H40.84574Z"/><path class="cls-2" d="M100.4932,76.02767q3.32666,1.98486,3.32812,4.22363a7.873,7.873,0,0,1-1.28027,3.52051L89.293,106.49154a5.83469,5.83469,0,0,1-2.04785,1.95214,5.29822,5.29822,0,0,1-2.78418.86426,5.46468,5.46468,0,0,1-2.624-.67187,5.186,5.186,0,0,1-1.75977-1.376l-.57617-.7041L66.18949,83.77181a7.20638,7.20638,0,0,1-1.28028-3.45605q0-2.30421,3.32813-4.28809a8.4895,8.4895,0,0,1,3.83984-1.4082,2.86161,2.86161,0,0,1,2.208.86425,12.12225,12.12225,0,0,1,1.69629,2.5918l8.38379,16.12793,8.38379-16.12793q.70313-1.21435,1.05664-1.75976a4.18419,4.18419,0,0,1,1.11914-1.0879,3.47983,3.47983,0,0,1,2.04883-.54394A7.6342,7.6342,0,0,1,100.4932,76.02767Z"/><path class="cls-2" d="M117.8682,69.01986a2.71169,2.71169,0,0,1-1.69629,1.31152,13.80012,13.80012,0,0,1-6.46387,0,2.68207,2.68207,0,0,1-1.69531-1.34375,5.46291,5.46291,0,0,1-.57617-1.69629,25.26186,25.26186,0,0,1,0-4.416,5.22288,5.22288,0,0,1,.54394-1.63184q.895-1.72851,4.99219-1.72754,4.03125,0,4.86328,1.72754a5.13844,5.13844,0,0,1,.6084,1.69629,25.51956,25.51956,0,0,1,0,4.416A5.16153,5.16153,0,0,1,117.8682,69.01986ZM107.33988,80.89193a18.4551,18.4551,0,0,1,.09668-2.208,5.91175,5.91175,0,0,1,.54394-1.69629q.895-1.66405,4.99219-1.66406,3.07178,0,4.35156,1.08789a3.53427,3.53427,0,0,1,1.15235,2.75195q.063.64014.06347,1.85645v22.39941a18.69147,18.69147,0,0,1-.0957,2.208,5.12349,5.12349,0,0,1-.6084,1.69629q-.832,1.66552-4.92773,1.66406-4.03125,0-4.92774-1.72754a5.95969,5.95969,0,0,1-.54394-1.66406,18.36067,18.36067,0,0,1-.09668-2.24024Z"/><path class="cls-2" d="M126.73148,62.012h35.584a7.074,7.074,0,0,1,3.00782.4795,2.43019,2.43019,0,0,1,1.28027,1.5039,9.27172,9.27172,0,0,1,.32031,2.68848,8.91828,8.91828,0,0,1-.32031,2.65527,2.19673,2.19673,0,0,1-1.08789,1.376,7.44382,7.44382,0,0,1-3.26367.57617H150.02738v32.19238a17.64583,17.64583,0,0,1-.09571,2.17579,5.19078,5.19078,0,0,1-.57617,1.63183,2.71286,2.71286,0,0,1-1.69629,1.3125,10.91619,10.91619,0,0,1-3.19922.38379,10.58029,10.58029,0,0,1-3.168-.38379,2.698,2.698,0,0,1-1.66407-1.3125,5.1382,5.1382,0,0,1-.57617-1.66406,18.48069,18.48069,0,0,1-.0957-2.208V71.29134H126.668a7.09477,7.09477,0,0,1-3.00879-.47949,2.42617,2.42617,0,0,1-1.27929-1.50391,9.22855,9.22855,0,0,1-.32032-2.68847,8.9065,8.9065,0,0,1,.32032-2.65625,2.20136,2.20136,0,0,1,1.08789-1.376A7.45655,7.45655,0,0,1,126.73148,62.012Z"/><path class="cls-2" d="M180.97074,69.01986a2.71169,2.71169,0,0,1-1.69629,1.31152,13.80012,13.80012,0,0,1-6.46387,0,2.68207,2.68207,0,0,1-1.69531-1.34375,5.46264,5.46264,0,0,1-.57617-1.69629,25.26186,25.26186,0,0,1,0-4.416,5.22288,5.22288,0,0,1,.54394-1.63184q.895-1.72851,4.99219-1.72754,4.03125,0,4.86328,1.72754a5.13867,5.13867,0,0,1,.6084,1.69629,25.51956,25.51956,0,0,1,0,4.416A5.16177,5.16177,0,0,1,180.97074,69.01986ZM170.44242,80.89193a18.4551,18.4551,0,0,1,.09668-2.208,5.91175,5.91175,0,0,1,.54394-1.69629q.895-1.66405,4.99219-1.66406,3.07177,0,4.35156,1.08789a3.53423,3.53423,0,0,1,1.15234,2.75195q.063.64014.06348,1.85645v22.39941a18.69367,18.69367,0,0,1-.0957,2.208,5.12371,5.12371,0,0,1-.6084,1.69629q-.832,1.66552-4.92773,1.66406-4.03125,0-4.92774-1.72754a5.95969,5.95969,0,0,1-.54394-1.66406,18.36067,18.36067,0,0,1-.09668-2.24024Z"/><path class="cls-2" d="M197.3223,92.12337a5.2078,5.2078,0,0,0,1.792,4.22461,5.832,5.832,0,0,0,3.80762,1.50391,6.63617,6.63617,0,0,0,3.77637-1.18457,5.62992,5.62992,0,0,1,2.84765-1.1836q1.92041,0,4.67188,3.39161a5.62527,5.62527,0,0,1,1.47265,3.32812q0,2.4331-3.52051,4.54395a15.20545,15.20545,0,0,1-8.96,2.56054,18.41811,18.41811,0,0,1-11.45605-4.28808,15.23487,15.23487,0,0,1-4.28809-5.47266,17.04012,17.04012,0,0,1-1.66406-7.55176,16.64174,16.64174,0,0,1,1.66406-7.48828,15.37289,15.37289,0,0,1,4.28809-5.40723,17.8899,17.8899,0,0,1,11.32812-4.2246,16.85855,16.85855,0,0,1,4.73633.67187,15.88294,15.88294,0,0,1,3.3916,1.3125l1.02442.63965q1.15137.769,1.792,1.21582a3.66149,3.66149,0,0,1,1.66406,2.91211,6.91557,6.91557,0,0,1-1.34472,3.68066q-2.30274,3.52-4.416,3.51953a7.40014,7.40014,0,0,1-3.45508-1.4082,4.6242,4.6242,0,0,0-3.29687-1.08789,6.16034,6.16034,0,0,0-4,1.53613A5.22377,5.22377,0,0,0,197.3223,92.12337Z"/><path class="cls-2" d="M239.69046,92.09115l8.51172,7.04a10.01963,10.01963,0,0,1,2.01563,2.04883,2.65423,2.65423,0,0,1,.416,1.34375q0,1.53516-1.9834,4.16016-2.17675,2.688-3.84082,2.6875-1.4077,0-3.90332-1.85547l-.64062-.44824q-1.47217-1.21583-4.54395-4.25586-3.07178-3.03955-4.67187-4.32031v4.92773a18.691,18.691,0,0,1-.09571,2.208,5.12366,5.12366,0,0,1-.60839,1.69629q-.832,1.66552-4.92774,1.66406-4.03125,0-4.92773-1.72754a5.91212,5.91212,0,0,1-.544-1.69629,18.45724,18.45724,0,0,1-.09668-2.208V65.01986a18.46853,18.46853,0,0,1,.09668-2.208,5.91212,5.91212,0,0,1,.544-1.69629q.895-1.72851,4.99218-1.72754,3.07179,0,4.35157,1.08789a3.61,3.61,0,0,1,1.15234,2.81543q.063.57716.06348,1.792V85.37142q1.15283-.95947,3.48828-3.26367,2.335-2.30421,3.48828-3.26367l.76758-.5127a6.76723,6.76723,0,0,1,3.83984-1.72754q1.59962,0,3.68067,2.5918,2.07861,2.59131,2.0791,4.06445,0,1.47217-2.36719,3.45508Z"/><path class="cls-2" d="M284.74613,88.09115q0,3.936-1.95215,5.82421a6.0909,6.0909,0,0,1-4.32031,1.88868h-15.168a3.50854,3.50854,0,0,0,2.1123,3.00781,8.40106,8.40106,0,0,0,4.22363,1.21582,17.62965,17.62965,0,0,0,5.82422-.76758l.7041-.25683a6.46062,6.46062,0,0,1,2.55958-.70411q2.04784,0,3.5205,2.88086a7.0767,7.0767,0,0,1,.832,2.94336q0,5.69678-13.63183,5.69629a20.56651,20.56651,0,0,1-8.416-1.63183,14.29008,14.29008,0,0,1-5.72851-4.32032,18.4041,18.4041,0,0,1-4.03223-11.584q0-8.064,5.2168-12.89551a18.42465,18.42465,0,0,1,13.02343-4.832q8.89454,0,13.05665,6.27148A13.0223,13.0223,0,0,1,284.74613,88.09115Zm-13.50391,1.88867q2.43164,0,2.43164-2.04785a2.88513,2.88513,0,0,0-1.12012-2.36817,5.013,5.013,0,0,0-3.20019-.89648,6.4728,6.4728,0,0,0-4.12793,1.69629,4.75734,4.75734,0,0,0-2.04785,3.61621Z"/><path class="cls-2" d="M307.84964,86.58724l-4.15918-.25586v8.832a4.40958,4.40958,0,0,0,.544,2.4961,2.3539,2.3539,0,0,0,2.04785.76855,20.67744,20.67744,0,0,1,2.30371.0957,4.55314,4.55314,0,0,1,1.69629.60742q1.4707.83351,1.47168,4.28809,0,4.03272-1.792,4.92871a5.94307,5.94307,0,0,1-1.69629.54395,17.98422,17.98422,0,0,1-2.14356.0957q-6.65771,0-10.1123-3.00781-3.45556-3.00733-3.45606-10.17578V86.33138a16.85672,16.85672,0,0,1-2.624.19238,2.93982,2.93982,0,0,1-2.33594-1.08789,5.75782,5.75782,0,0,1-.92773-3.71191,16.0885,16.0885,0,0,1,.32031-3.8086,3.42123,3.42123,0,0,1,.89551-1.69531,3.92825,3.92825,0,0,1,2.56055-.832l2.11132.25586v-6.5918a17.64268,17.64268,0,0,1,.09668-2.17675,4.0248,4.0248,0,0,1,.60743-1.53614q.832-1.59815,4.92871-1.59961,4.35059,0,5.18359,2.36817a11.97712,11.97712,0,0,1,.32031,3.26367v6.27246q2.81544-.25488,4.25586-.25586a18.14265,18.14265,0,0,1,2.17578.0957,5.134,5.134,0,0,1,1.69629.60743q1.6626.83349,1.66406,4.92871,0,4.03125-1.72851,4.92773a5.91222,5.91222,0,0,1-1.69629.54395A18.50292,18.50292,0,0,1,307.84964,86.58724Z"/></g></g></g></svg>