<svg xmlns="http://www.w3.org/2000/svg" viewBox="0 0 96 170.66667"><defs><style>.cls-1{fill:#f1f1f1;}.cls-2{fill:#1e1e1e;}</style></defs><title>Logo_mini_dark</title><g id="Calque_2" data-name="Calque 2"><g id="Calque_1-2" data-name="Calque 1"><g id="Dark"><path class="cls-1" d="M77.24187,0a5.49592,5.49592,0,0,0-5.38581,4.52788,24.2221,24.2221,0,0,1-47.71265,0A5.49592,5.49592,0,0,0,18.75761,0H5.48269A5.51556,5.51556,0,0,0,0,5.54785v159.571a5.51555,5.51555,0,0,0,5.48269,5.54784H18.75814a5.49593,5.49593,0,0,0,5.3858-4.52787,24.22209,24.22209,0,0,1,47.71264,0,5.49592,5.49592,0,0,0,5.3858,4.52786H90.51731A5.51555,5.51555,0,0,0,96,165.11882V5.54785A5.51556,5.51556,0,0,0,90.51731,0Z"/><path class="cls-2" d="M40.84575,97.65955H60.55766a18.71428,18.71428,0,0,1,2.208.0957,5.15338,5.15338,0,0,1,1.69629.6084q1.72851.89649,1.72851,4.99219,0,4.481-2.36816,5.248a10.7131,10.7131,0,0,1-3.32813.38379H35.15043q-4.48095,0-5.248-2.43164a10.0645,10.0645,0,0,1-.38477-3.26465V67.7074q0-3.26367,1.2168-4.44727,1.21436-1.18359,4.60742-1.18457H60.55766a18.71381,18.71381,0,0,1,2.208.09571,5.15333,5.15333,0,0,1,1.69629.60839q1.72851.89649,1.72851,4.99219,0,4.481-2.36816,5.24805a10.7131,10.7131,0,0,1-3.32813.38379H40.84575v6.46387H53.51762a18.71417,18.71417,0,0,1,2.208.0957,5.15338,5.15338,0,0,1,1.69629.6084q1.72851.89647,1.72851,4.99218,0,4.481-2.43261,5.24805a10.7089,10.7089,0,0,1-3.32813.38379H40.84575Z"/></g></g></g></svg>