<svg xmlns="http://www.w3.org/2000/svg" viewBox="0 0 96 170.66667"><defs><style>.cls-1{fill:#ff942a;}.cls-2{fill:#1e1e1e;}</style></defs><title>logo_mini_dark_variant</title><g id="Calque_2" data-name="Calque 2"><g id="Calque_1-2" data-name="Calque 1"><g id="Dark"><path class="cls-1" d="M77.24187,0a5.49592,5.49592,0,0,0-5.38581,4.52788,24.2221,24.2221,0,0,1-47.71265,0A5.49592,5.49592,0,0,0,18.75761,0H5.48269A5.51556,5.51556,0,0,0,0,5.54785v159.571a5.51555,5.51555,0,0,0,5.48269,5.54784H18.75814a5.49593,5.49593,0,0,0,5.3858-4.52787,24.22209,24.22209,0,0,1,47.71264,0,5.49592,5.49592,0,0,0,5.3858,4.52786H90.51731A5.51555,5.51555,0,0,0,96,165.11882V5.54785A5.51556,5.51556,0,0,0,90.51731,0Z"/><path class="cls-2" d="M41.24158,97.94328H60.95349a18.71637,18.71637,0,0,1,2.208.0957,5.15353,5.15353,0,0,1,1.69629.6084q1.72853.89649,1.72852,4.99219,0,4.48095-2.36817,5.248a10.71307,10.71307,0,0,1-3.32812.38379H35.54627q-4.481,0-5.248-2.43164a10.06456,10.06456,0,0,1-.38476-3.26465v-35.584q0-3.26367,1.21679-4.44726,1.21436-1.1836,4.60742-1.18457H60.95349a18.71417,18.71417,0,0,1,2.208.0957,5.15331,5.15331,0,0,1,1.69629.6084q1.72853.89648,1.72852,4.99219,0,4.481-2.36817,5.248a10.71307,10.71307,0,0,1-3.32812.38379H41.24158v6.46387H53.91346a18.71629,18.71629,0,0,1,2.208.0957,5.15331,5.15331,0,0,1,1.69629.6084q1.72853.89649,1.72852,4.99219,0,4.481-2.43262,5.248a10.70887,10.70887,0,0,1-3.32812.38379h-12.544Z"/></g></g></g></svg>